<svg width="1024" height="1024" viewBox="0 0 1024 1024" xmlns="http://www.w3.org/2000/svg">
    <rect width="100%" height="100%" fill="white" />
    <!-- 도둑 그림자 -->
    <path d="M800 400 Q750 350 700 400 Q650 450 600 400 Q550 350 500 400 Q450 450 400 400 Q350 350 300 400 L320 500 Q370 450 420 500 Q470 550 520 500 Q570 450 620 500 Q670 550 720 500 Q770 450 820 500 Z" fill="black" />

    <!-- 경찰 그림자 -->
    <path d="M220 600 Q270 650 320 600 Q370 550 420 600 Q470 650 520 600 Q570 550 620 600 Q670 650 720 600 L700 500 Q650 550 600 500 Q550 450 500 500 Q450 550 400 500 Q350 450 300 500 Q250 550 200 500 Z" fill="black" />
</svg>
