<?xml version="1.0" encoding="iso-8859-1"?>
<!-- Uploaded to: SVG Repo, www.svgrepo.com, Generator: SVG Repo Mixer Tools -->
<!DOCTYPE svg PUBLIC "-//W3C//DTD SVG 1.1//EN" "http://www.w3.org/Graphics/SVG/1.1/DTD/svg11.dtd">
<svg fill="#000000" version="1.1" id="Capa_1" xmlns="http://www.w3.org/2000/svg" xmlns:xlink="http://www.w3.org/1999/xlink" 
	 width="800px" height="800px" viewBox="0 0 33.004 33.003"
	 xml:space="preserve">
<g>
	<path d="M4.393,4.788c-5.857,5.857-5.858,15.354,0,21.213c4.875,4.875,12.271,5.688,17.994,2.447l10.617,4.161l-4.857-9.998
		c3.133-5.697,2.289-12.996-2.539-17.824C19.748-1.072,10.25-1.07,4.393,4.788z M25.317,22.149l0.261,0.512l1.092,2.142l0.006,0.01
		l1.717,3.536l-3.748-1.47l-0.037-0.015l-2.352-0.883l-0.582-0.219c-4.773,3.076-11.221,2.526-15.394-1.646
		C1.469,19.305,1.469,11.481,6.277,6.672c4.81-4.809,12.634-4.809,17.443,0.001C27.919,10.872,28.451,17.368,25.317,22.149z"/>
	<g>
		<path d="M10.296,21.464c2.185-0.081,4.167-0.713,5.957-1.937c1.651-1.127,2.901-2.601,3.76-4.405
			c0.535-1.125,0.874-2.306,0.995-3.547c0.04-0.397,0.062-0.8,0.062-1.2c0.003-0.299-0.098-0.58-0.311-0.804
			c-0.26-0.269-0.536-0.521-0.789-0.794c-0.605-0.652-1.614-0.667-2.304-0.057c-0.281,0.253-0.479,0.555-0.573,0.926
			c-0.148,0.579-0.335,1.15-0.452,1.736c-0.105,0.53,0.066,1.011,0.444,1.406c0.166,0.173,0.336,0.342,0.509,0.51
			c0.058,0.055,0.069,0.103,0.044,0.181c-0.726,2.306-2.242,3.821-4.548,4.552c-0.085,0.025-0.135,0.008-0.192-0.054
			c-0.156-0.162-0.315-0.321-0.478-0.479c-0.459-0.442-1.002-0.587-1.616-0.436c-0.536,0.136-1.067,0.29-1.6,0.437
			c-0.943,0.258-1.648,1.363-1.167,2.382c0.074,0.154,0.185,0.298,0.302,0.425c0.258,0.275,0.532,0.536,0.799,0.805
			c0.245,0.247,0.553,0.333,0.888,0.353C10.124,21.469,10.222,21.464,10.296,21.464z"/>
	</g>
</g>
</svg>